<?xml version="1.0" encoding="utf-8"?>
<!-- Generator: Adobe Illustrator 26.0.0, SVG Export Plug-In . SVG Version: 6.00 Build 0)  -->
<svg version="1.1" id="Layer_1" xmlns="http://www.w3.org/2000/svg" xmlns:xlink="http://www.w3.org/1999/xlink" x="0px" y="0px"
	 viewBox="0 0 1200 1801.4" style="enable-background:new 0 0 1200 1801.4;" xml:space="preserve">
<style type="text/css">
	.st0{fill:#FFAE6B;}
	.st1{fill:#DDFFCF;}
	.st2{fill:#CBF3C1;}
	.st3{fill:#B9E6B2;}
	.st4{fill:#A8DAA3;}
	.st5{fill:#96CE95;}
	.st6{fill:#86C188;}
	.st7{fill:#78B57E;}
	.st8{fill:#6AA974;}
	.st9{fill:#5B9C6B;}
	.st10{fill:#4C9062;}
	.st11{fill:#3E8458;}
	.st12{fill:#2F7750;}
</style>
<path class="st0" d="M1180.6,774.1c-52.7-56.4-64-100.2-33.7-131.6c45.4-46.9,172.8-108.3,206.3-184.9s217.6-99.1,283-15.5
	c65.5,83.7,174,209.7-98,315.5C1356.8,828.2,1237.7,833.6,1180.6,774.1L1180.6,774.1z"/>
<path class="st1" d="M735.9,795.3c-54.7-194.1-27.9-339.7,80.3-436.5C978.7,213.5,1349.7,36.2,1520.3-208
	c170.5-244.4,626.7-284.3,678.2,1.2c51.6,285.4,152,717.2-609.6,1013.6C1081.1,1004.3,796.8,1000.5,735.9,795.3L735.9,795.3z"/>
<path class="st2" d="M769.6,794.8c-60.5-180.4-40.5-316,59.9-406.7c150.4-136.2,500.3-303.4,654.5-532
	c154.2-228.4,591.4-268.4,652.5-3c61.1,265.3,175,666.6-545.7,947.1C1110.2,987.2,836.6,985.4,769.6,794.8L769.6,794.8z"/>
<path class="st3" d="M804.2,794.1c-64.8-167.1-50.9-293.2,41.7-378c139-127.4,467.8-284.7,606.9-497.7
	c139-213,556.5-252.6,625.3-6.6c68.7,246,193.2,618-486.7,882.6C1137.9,970.7,875.5,970.6,804.2,794.1L804.2,794.1z"/>
<path class="st4" d="M839.3,793c-67.9-154.4-59.3-271.1,26.1-350.2c128-118.6,436.1-266.1,560.9-464.1
	c124.9-198,521.8-237,596.3-9.6c74.6,227.4,207,571-432.2,819.8C1164.3,954.7,914,956,839.3,793L839.3,793z"/>
<path class="st5" d="M875.2,791.7c-70-142-65.9-249.7,12.3-323.2c117.4-110.1,404.8-247.8,516.4-431.1s487.3-221.4,566.1-12
	c78.8,209.3,216.7,525.6-381.7,758.5C1189.6,939.1,951.8,941.8,875.2,791.7L875.2,791.7z"/>
<path class="st6" d="M911.6,790.1c-70.9-130.1-70.7-229.1,0.7-297c107.2-101.8,374.1-229.8,473.4-398.7
	c99.3-168.9,453-205.8,534.6-14c81.6,191.9,222.6,481.8-335,698.8C1213.8,924,989.1,927.6,911.6,790.1L911.6,790.1z"/>
<path class="st7" d="M948.6,788.4c-71-118.6-74-209.1-9.1-271.5c97.4-93.6,344-211.8,431.8-366.8s418.8-190.4,501.9-15.4
	c82.9,175,224.9,439.3-291.8,640.4C1236.9,909.2,1025.9,913.7,948.6,788.4L948.6,788.4z"/>
<path class="st8" d="M986.1,786.5c-70-107.4-75.7-189.6-17.1-246.6c87.9-85.4,314.4-194.2,391.3-335.3s384.9-175.1,468-16.5
	s224,398.1-252,583.4C1259,894.9,1062.3,899.9,986.1,786.5L986.1,786.5z"/>
<path class="st9" d="M1024.1,784.4c-68.2-96.6-76-170.7-23.5-222.5c78.7-77.5,285.1-176.7,352.2-304.4
	c66.9-127.8,351.2-159.7,433-17.1s219.8,358.1-215.4,527.5C1280.3,880.9,1098.1,886.3,1024.1,784.4L1024.1,784.4z"/>
<path class="st10" d="M1062.6,782.1c-65.5-86.1-75-152.3-28.2-198.8c70-69.7,256.5-159.3,314-273.9c57.6-114.5,317.5-144.5,397-17.3
	c79.5,127.3,212.7,319.3-181.7,472.7C1300.7,867.2,1133.7,873,1062.6,782.1L1062.6,782.1z"/>
<path class="st11" d="M1101.4,779.6c-62-75.8-72.5-134.5-31.5-175.8c61.5-62.1,228.2-142.2,277-243.8
	c48.9-101.7,284.1-129.3,359.9-17c75.9,112.3,202.5,281.6-151.1,419.2C1320.2,853.9,1168.8,859.7,1101.4,779.6L1101.4,779.6z"/>
<path class="st12" d="M1140.9,777c-57.8-66-68.9-117.2-33.4-153.4c53.3-54.4,200.4-125.1,241.1-214.1
	c40.9-89,250.8-114.2,321.9-16.5c71.3,97.8,189.6,245.1-123.1,366.8C1338.9,840.9,1203.4,846.6,1140.9,777L1140.9,777z"/>
<path class="st1" d="M735.9,795.3c-54.7-194.1-27.9-339.7,80.3-436.5C978.7,213.5,1349.7,36.2,1520.3-208
	c170.5-244.4,626.7-284.3,678.2,1.2c51.6,285.4,152,717.2-609.6,1013.6C1081.1,1004.3,796.8,1000.5,735.9,795.3L735.9,795.3z"/>
<path class="st2" d="M769.6,794.8c-60.5-180.4-40.5-316,59.9-406.7c150.4-136.2,500.3-303.4,654.5-532
	c154.2-228.4,591.4-268.4,652.5-3c61.1,265.3,175,666.6-545.7,947.1C1110.2,987.2,836.6,985.4,769.6,794.8L769.6,794.8z"/>
<path class="st3" d="M804.2,794.1c-64.8-167.1-50.9-293.2,41.7-378c139-127.4,467.8-284.7,606.9-497.7
	c139-213,556.5-252.6,625.3-6.6c68.7,246,193.2,618-486.7,882.6C1137.9,970.7,875.5,970.6,804.2,794.1L804.2,794.1z"/>
<path class="st4" d="M839.3,793c-67.9-154.4-59.3-271.1,26.1-350.2c128-118.6,436.1-266.1,560.9-464.1
	c124.9-198,521.8-237,596.3-9.6c74.6,227.4,207,571-432.2,819.8C1164.3,954.7,914,956,839.3,793L839.3,793z"/>
<path class="st5" d="M875.2,791.7c-70-142-65.9-249.7,12.3-323.2c117.4-110.1,404.8-247.8,516.4-431.1s487.3-221.4,566.1-12
	c78.8,209.3,216.7,525.6-381.7,758.5C1189.6,939.1,951.8,941.8,875.2,791.7L875.2,791.7z"/>
<path class="st6" d="M911.6,790.1c-70.9-130.1-70.7-229.1,0.7-297c107.2-101.8,374.1-229.8,473.4-398.7
	c99.3-168.9,453-205.8,534.6-14c81.6,191.9,222.6,481.8-335,698.8C1213.8,924,989.1,927.6,911.6,790.1L911.6,790.1z"/>
<path class="st7" d="M948.6,788.4c-71-118.6-74-209.1-9.1-271.5c97.4-93.6,344-211.8,431.8-366.8s418.8-190.4,501.9-15.4
	c82.9,175,224.9,439.3-291.8,640.4C1236.9,909.2,1025.9,913.7,948.6,788.4L948.6,788.4z"/>
<path class="st8" d="M986.1,786.5c-70-107.4-75.7-189.6-17.1-246.6c87.9-85.4,314.4-194.2,391.3-335.3s384.9-175.1,468-16.5
	s224,398.1-252,583.4C1259,894.9,1062.3,899.9,986.1,786.5L986.1,786.5z"/>
<path class="st9" d="M1024.1,784.4c-68.2-96.6-76-170.7-23.5-222.5c78.7-77.5,285.1-176.7,352.2-304.4
	c66.9-127.8,351.2-159.7,433-17.1s219.8,358.1-215.4,527.5C1280.3,880.9,1098.1,886.3,1024.1,784.4L1024.1,784.4z"/>
<path class="st10" d="M1062.6,782.1c-65.5-86.1-75-152.3-28.2-198.8c70-69.7,256.5-159.3,314-273.9c57.6-114.5,317.5-144.5,397-17.3
	c79.5,127.3,212.7,319.3-181.7,472.7C1300.7,867.2,1133.7,873,1062.6,782.1L1062.6,782.1z"/>
<path class="st11" d="M1101.4,779.6c-62-75.8-72.5-134.5-31.5-175.8c61.5-62.1,228.2-142.2,277-243.8
	c48.9-101.7,284.1-129.3,359.9-17c75.9,112.3,202.5,281.6-151.1,419.2C1320.2,853.9,1168.8,859.7,1101.4,779.6L1101.4,779.6z"/>
<path class="st12" d="M1140.9,777c-57.8-66-68.9-117.2-33.4-153.4c53.3-54.4,200.4-125.1,241.1-214.1
	c40.9-89,250.8-114.2,321.9-16.5c71.3,97.8,189.6,245.1-123.1,366.8C1338.9,840.9,1203.4,846.6,1140.9,777L1140.9,777z"/>
<path class="st1" d="M-1100.2,1130.7c19.4,172.8,97.2,281.2,233.2,325.1c204.1,65.8,614.2,92.2,861.7,234.9
	c247.5,142.8,687.1,32.4,631.6-212.7c-55.4-245.1-118.5-622.8-935.7-622.8C-854.2,855.3-1117.8,947.1-1100.2,1130.7L-1100.2,1130.7z
	"/>
<path class="st2" d="M-1068.6,1120.6c9.1,163.6,76.9,266.1,203.3,307.6c189.6,62.3,576.3,87.2,802.9,222.4
	c226.6,135.1,648.5,30.7,609.2-201.3c-39.3-231.9-78.7-589.4-852.1-589.4C-820.9,859.9-1075.3,946.8-1068.6,1120.6L-1068.6,1120.6z"
	/>
<path class="st3" d="M-1036.1,1110.4c0.2,154.3,58.9,251.1,176,290.2c175.7,58.8,539.2,82.3,746.1,209.8
	c206.8,127.5,610.2,28.9,585.1-189.9c-25.2-218.8-44.1-556.1-773.7-556.1C-789.1,864.5-1033.6,946.5-1036.1,1110.4L-1036.1,1110.4z"
	/>
<path class="st4" d="M-1002.9,1100.3c-7.3,145.1,43.1,236,151.3,272.8c162.3,55.2,502.9,77.3,691,197.2
	c188.2,119.8,572.2,27.2,559.2-178.5s-14.2-522.7-700.1-522.7C-758.7,869.1-992.5,946.2-1002.9,1100.3L-1002.9,1100.3z"/>
<path class="st5" d="M-969,1090.1c-13.7,135.8,29.2,220.9,128.7,255.4c149.3,51.7,467.1,72.4,637.6,184.6
	c170.5,112.2,534.4,25.5,531.9-167.1c-2.5-192.5,11.3-489.3-630.8-489.3C-729.5,873.7-952.1,945.8-969,1090.1L-969,1090.1z"/>
<path class="st6" d="M-934.5,1080c-18.9,126.5,17.2,205.9,108.4,238c136.8,48.2,432,67.5,585.8,172s496.8,23.7,503.3-155.7
	c6.4-179.4,32.7-456-565.6-456C-701.5,878.3-912.2,945.5-934.5,1080L-934.5,1080z"/>
<path class="st7" d="M-899.4,1069.8c-23.1,117.3,6.9,190.8,90,220.6c124.7,44.7,397.4,62.5,535.4,159.4s459.4,22,473.3-144.3
	c13.8-166.3,50.3-422.6-504.2-422.6C-674.6,882.9-872.8,945.2-899.4,1069.8L-899.4,1069.8z"/>
<path class="st8" d="M-863.8,1059.7c-26.3,108-1.8,175.7,73.5,203.2c112.9,41.1,363.4,57.6,486.3,146.8
	c122.9,89.2,422.2,20.3,442.1-132.9s64.4-389.3-446.4-389.3C-648.8,887.5-833.9,944.9-863.8,1059.7L-863.8,1059.7z"/>
<path class="st9" d="M-827.6,1049.5c-28.5,98.8-8.9,160.7,58.8,185.8c101.5,37.6,329.8,52.7,438.6,134.2
	C-221.5,1451.1,55,1388,79.5,1248s75-355.9-392-355.9C-623.9,892.1-795.6,944.6-827.6,1049.5L-827.6,1049.5z"/>
<path class="st10" d="M-790.9,1039.3c-29.8,89.5-14.6,145.6,45.8,168.3c90.5,34.1,296.8,47.7,392,121.7
	c95.2,73.9,348.3,16.8,376.2-110.1c27.9-126.9,82.4-322.5-340.8-322.5C-599.9,896.7-757.6,944.2-790.9,1039.3L-790.9,1039.3z"/>
<path class="st11" d="M-753.8,1029.2c-30.3,80.2-18.8,130.5,34.4,150.9c79.8,30.6,264.2,42.8,346.6,109.1
	c82.4,66.3,311.6,15,341.6-98.7c30-113.8,86.6-289.1-292.8-289.1C-576.9,901.3-720.1,943.9-753.8,1029.2L-753.8,1029.2z"/>
<path class="st1" d="M-1100.2,1130.7c19.4,172.8,97.2,281.2,233.2,325.1c204.1,65.8,614.2,92.2,861.7,234.9
	c247.5,142.8,687.1,32.4,631.6-212.7c-55.4-245.1-118.5-622.8-935.7-622.8C-854.2,855.3-1117.8,947.1-1100.2,1130.7L-1100.2,1130.7z
	"/>
<path class="st2" d="M-1068.6,1120.6c9.1,163.6,76.9,266.1,203.3,307.6c189.6,62.3,576.3,87.2,802.9,222.4
	c226.6,135.1,648.5,30.7,609.2-201.3c-39.3-231.9-78.7-589.4-852.1-589.4C-820.9,859.9-1075.3,946.8-1068.6,1120.6L-1068.6,1120.6z"
	/>
<path class="st3" d="M-1036.1,1110.4c0.2,154.3,58.9,251.1,176,290.2c175.7,58.8,539.2,82.3,746.1,209.8
	c206.8,127.5,610.2,28.9,585.1-189.9c-25.2-218.8-44.1-556.1-773.7-556.1C-789.1,864.5-1033.6,946.5-1036.1,1110.4L-1036.1,1110.4z"
	/>
<path class="st4" d="M-1002.9,1100.3c-7.3,145.1,43.1,236,151.3,272.8c162.3,55.2,502.9,77.3,691,197.2
	c188.2,119.8,572.2,27.2,559.2-178.5s-14.2-522.7-700.1-522.7C-758.7,869.1-992.5,946.2-1002.9,1100.3L-1002.9,1100.3z"/>
<path class="st5" d="M-969,1090.1c-13.7,135.8,29.2,220.9,128.7,255.4c149.3,51.7,467.1,72.4,637.6,184.6
	c170.5,112.2,534.4,25.5,531.9-167.1c-2.5-192.5,11.3-489.3-630.8-489.3C-729.5,873.7-952.1,945.8-969,1090.1L-969,1090.1z"/>
<path class="st6" d="M-934.5,1080c-18.9,126.5,17.2,205.9,108.4,238c136.8,48.2,432,67.5,585.8,172s496.8,23.7,503.3-155.7
	c6.4-179.4,32.7-456-565.6-456C-701.5,878.3-912.2,945.5-934.5,1080L-934.5,1080z"/>
<path class="st7" d="M-899.4,1069.8c-23.1,117.3,6.9,190.8,90,220.6c124.7,44.7,397.4,62.5,535.4,159.4s459.4,22,473.3-144.3
	c13.8-166.3,50.3-422.6-504.2-422.6C-674.6,882.9-872.8,945.2-899.4,1069.8L-899.4,1069.8z"/>
<path class="st8" d="M-863.8,1059.7c-26.3,108-1.8,175.7,73.5,203.2c112.9,41.1,363.4,57.6,486.3,146.8
	c122.9,89.2,422.2,20.3,442.1-132.9s64.4-389.3-446.4-389.3C-648.8,887.5-833.9,944.9-863.8,1059.7L-863.8,1059.7z"/>
<path class="st9" d="M-827.6,1049.5c-28.5,98.8-8.9,160.7,58.8,185.8c101.5,37.6,329.8,52.7,438.6,134.2
	C-221.5,1451.1,55,1388,79.5,1248s75-355.9-392-355.9C-623.9,892.1-795.6,944.6-827.6,1049.5L-827.6,1049.5z"/>
<path class="st10" d="M-790.9,1039.3c-29.8,89.5-14.6,145.6,45.8,168.3c90.5,34.1,296.8,47.7,392,121.7
	c95.2,73.9,348.3,16.8,376.2-110.1c27.9-126.9,82.4-322.5-340.8-322.5C-599.9,896.7-757.6,944.2-790.9,1039.3L-790.9,1039.3z"/>
<path class="st11" d="M-753.8,1029.2c-30.3,80.2-18.8,130.5,34.4,150.9c79.8,30.6,264.2,42.8,346.6,109.1
	c82.4,66.3,311.6,15,341.6-98.7c30-113.8,86.6-289.1-292.8-289.1C-576.9,901.3-720.1,943.9-753.8,1029.2L-753.8,1029.2z"/>
</svg>
