<?xml version="1.0" encoding="UTF-8" standalone="no"?><svg xmlns="http://www.w3.org/2000/svg" xmlns:xlink="http://www.w3.org/1999/xlink" contentScriptType="application/ecmascript" contentStyleType="text/css" height="1864px" preserveAspectRatio="none" style="width:1009px;height:1864px;" version="1.1" viewBox="0 0 1009 1864" width="1009px" zoomAndPan="magnify"><defs><filter height="300%" id="fog0qxvgls65w" width="300%" x="-1" y="-1"><feGaussianBlur result="blurOut" stdDeviation="2.0"/><feColorMatrix in="blurOut" result="blurOut2" type="matrix" values="0 0 0 0 0 0 0 0 0 0 0 0 0 0 0 0 0 0 .4 0"/><feOffset dx="4.0" dy="4.0" in="blurOut2" result="blurOut3"/><feBlend in="SourceGraphic" in2="blurOut3" mode="normal"/></filter></defs><g><rect fill="#FFFFFF" filter="url(#fog0qxvgls65w)" height="1736.9219" style="stroke: #A80036; stroke-width: 1.0;" width="10" x="118" y="69.4297"/><rect fill="#FFFFFF" filter="url(#fog0qxvgls65w)" height="20.1641" style="stroke: #A80036; stroke-width: 1.0;" width="10" x="219.5" y="108.5625"/><rect fill="#FFFFFF" filter="url(#fog0qxvgls65w)" height="14" style="stroke: #A80036; stroke-width: 1.0;" width="10" x="219.5" y="186.9922"/><rect fill="#FFFFFF" filter="url(#fog0qxvgls65w)" height="20.1641" style="stroke: #A80036; stroke-width: 1.0;" width="10" x="219.5" y="502.2813"/><rect fill="#FFFFFF" filter="url(#fog0qxvgls65w)" height="14" style="stroke: #A80036; stroke-width: 1.0;" width="10" x="219.5" y="621.7109"/><rect fill="#FFFFFF" filter="url(#fog0qxvgls65w)" height="20.1641" style="stroke: #A80036; stroke-width: 1.0;" width="10" x="219.5" y="784.9766"/><rect fill="#FFFFFF" filter="url(#fog0qxvgls65w)" height="14" style="stroke: #A80036; stroke-width: 1.0;" width="10" x="219.5" y="863.4063"/><rect fill="#FFFFFF" filter="url(#fog0qxvgls65w)" height="20.1641" style="stroke: #A80036; stroke-width: 1.0;" width="10" x="219.5" y="999.6719"/><rect fill="#FFFFFF" filter="url(#fog0qxvgls65w)" height="14" style="stroke: #A80036; stroke-width: 1.0;" width="10" x="219.5" y="1078.1016"/><rect fill="#FFFFFF" filter="url(#fog0qxvgls65w)" height="20.1641" style="stroke: #A80036; stroke-width: 1.0;" width="10" x="219.5" y="1393.3906"/><rect fill="#FFFFFF" filter="url(#fog0qxvgls65w)" height="14" style="stroke: #A80036; stroke-width: 1.0;" width="10" x="219.5" y="1512.8203"/><rect fill="#FFFFFF" filter="url(#fog0qxvgls65w)" height="126.2656" style="stroke: #A80036; stroke-width: 1.0;" width="10" x="331" y="157.8594"/><rect fill="#FFFFFF" filter="url(#fog0qxvgls65w)" height="25.1328" style="stroke: #A80036; stroke-width: 1.0;" width="10" x="336" y="237.9922"/><rect fill="#FFFFFF" filter="url(#fog0qxvgls65w)" height="432.5859" style="stroke: #A80036; stroke-width: 1.0;" width="10" x="331" y="313.2578"/><rect fill="#FFFFFF" filter="url(#fog0qxvgls65w)" height="137.3984" style="stroke: #A80036; stroke-width: 1.0;" width="10" x="336" y="587.4453"/><rect fill="#FFFFFF" filter="url(#fog0qxvgls65w)" height="25.1328" style="stroke: #A80036; stroke-width: 1.0;" width="10" x="341" y="672.7109"/><rect fill="#FFFFFF" filter="url(#fog0qxvgls65w)" height="126.2656" style="stroke: #A80036; stroke-width: 1.0;" width="10" x="331" y="834.2734"/><rect fill="#FFFFFF" filter="url(#fog0qxvgls65w)" height="25.1328" style="stroke: #A80036; stroke-width: 1.0;" width="10" x="336" y="914.4063"/><rect fill="#FFFFFF" filter="url(#fog0qxvgls65w)" height="126.2656" style="stroke: #A80036; stroke-width: 1.0;" width="10" x="331" y="1048.9688"/><rect fill="#FFFFFF" filter="url(#fog0qxvgls65w)" height="25.1328" style="stroke: #A80036; stroke-width: 1.0;" width="10" x="336" y="1129.1016"/><rect fill="#FFFFFF" filter="url(#fog0qxvgls65w)" height="432.5859" style="stroke: #A80036; stroke-width: 1.0;" width="10" x="331" y="1204.3672"/><rect fill="#FFFFFF" filter="url(#fog0qxvgls65w)" height="137.3984" style="stroke: #A80036; stroke-width: 1.0;" width="10" x="336" y="1478.5547"/><rect fill="#FFFFFF" filter="url(#fog0qxvgls65w)" height="25.1328" style="stroke: #A80036; stroke-width: 1.0;" width="10" x="341" y="1563.8203"/><rect fill="#FFFFFF" filter="url(#fog0qxvgls65w)" height="126.2656" style="stroke: #A80036; stroke-width: 1.0;" width="10" x="331" y="1666.0859"/><rect fill="#FFFFFF" filter="url(#fog0qxvgls65w)" height="25.1328" style="stroke: #A80036; stroke-width: 1.0;" width="10" x="336" y="1746.2188"/><rect fill="#FFFFFF" filter="url(#fog0qxvgls65w)" height="20.1641" style="stroke: #A80036; stroke-width: 1.0;" width="10" x="513.5" y="352.3906"/><rect fill="#FFFFFF" filter="url(#fog0qxvgls65w)" height="20.1641" style="stroke: #A80036; stroke-width: 1.0;" width="10" x="513.5" y="1243.5"/><rect fill="#FFFFFF" filter="url(#fog0qxvgls65w)" height="138.7578" style="stroke: #A80036; stroke-width: 1.0;" width="10" x="696.5" y="411.6875"/><rect fill="#FFFFFF" filter="url(#fog0qxvgls65w)" height="138.7578" style="stroke: #A80036; stroke-width: 1.0;" width="10" x="696.5" y="1302.7969"/><rect fill="#FFFFFF" filter="url(#fog0qxvgls65w)" height="79.4609" style="stroke: #A80036; stroke-width: 1.0;" width="10" x="825" y="456.9844"/><rect fill="#FFFFFF" filter="url(#fog0qxvgls65w)" height="79.4609" style="stroke: #A80036; stroke-width: 1.0;" width="10" x="825" y="1348.0938"/><rect fill="#FFFFFF" filter="url(#fog0qxvgls65w)" height="14" style="stroke: #A80036; stroke-width: 1.0;" width="10" x="944.5" y="1695.2188"/><rect fill="#FEFECE" filter="url(#fog0qxvgls65w)" height="30.2969" style="stroke: #A80036; stroke-width: 1.5;" width="77" x="184" y="77.4297"/><text fill="#000000" font-family="sans-serif" font-size="14" lengthAdjust="spacingAndGlyphs" textLength="63" x="191" y="97.4248">Message</text><rect fill="#FEFECE" filter="url(#fog0qxvgls65w)" height="30.2969" style="stroke: #A80036; stroke-width: 1.5;" width="219" x="407" y="321.2578"/><text fill="#000000" font-family="sans-serif" font-size="14" lengthAdjust="spacingAndGlyphs" textLength="205" x="414" y="341.2529">ListProductCategoryDatabase</text><rect fill="#FEFECE" filter="url(#fog0qxvgls65w)" height="30.2969" style="stroke: #A80036; stroke-width: 1.5;" width="119" x="640" y="380.5547"/><text fill="#000000" font-family="sans-serif" font-size="14" lengthAdjust="spacingAndGlyphs" textLength="105" x="647" y="400.5498">SqlInternalError</text><rect fill="#FEFECE" filter="url(#fog0qxvgls65w)" height="30.2969" style="stroke: #A80036; stroke-width: 1.5;" width="110" x="773" y="425.8516"/><text fill="#000000" font-family="sans-serif" font-size="14" lengthAdjust="spacingAndGlyphs" textLength="96" x="780" y="445.8467">ErrorMessage</text><rect fill="#FEFECE" filter="url(#fog0qxvgls65w)" height="30.2969" style="stroke: #A80036; stroke-width: 1.5;" width="77" x="184" y="471.1484"/><text fill="#000000" font-family="sans-serif" font-size="14" lengthAdjust="spacingAndGlyphs" textLength="63" x="191" y="491.1436">Message</text><rect fill="#FEFECE" filter="url(#fog0qxvgls65w)" height="30.2969" style="stroke: #A80036; stroke-width: 1.5;" width="77" x="184" y="753.8438"/><text fill="#000000" font-family="sans-serif" font-size="14" lengthAdjust="spacingAndGlyphs" textLength="63" x="191" y="773.8389">Message</text><rect fill="#FEFECE" filter="url(#fog0qxvgls65w)" height="30.2969" style="stroke: #A80036; stroke-width: 1.5;" width="77" x="184" y="968.5391"/><text fill="#000000" font-family="sans-serif" font-size="14" lengthAdjust="spacingAndGlyphs" textLength="63" x="191" y="988.5342">Message</text><rect fill="#FEFECE" filter="url(#fog0qxvgls65w)" height="30.2969" style="stroke: #A80036; stroke-width: 1.5;" width="219" x="407" y="1212.3672"/><text fill="#000000" font-family="sans-serif" font-size="14" lengthAdjust="spacingAndGlyphs" textLength="205" x="414" y="1232.3623">ListProductCategoryDatabase</text><rect fill="#FEFECE" filter="url(#fog0qxvgls65w)" height="30.2969" style="stroke: #A80036; stroke-width: 1.5;" width="119" x="640" y="1271.6641"/><text fill="#000000" font-family="sans-serif" font-size="14" lengthAdjust="spacingAndGlyphs" textLength="105" x="647" y="1291.6592">SqlInternalError</text><rect fill="#FEFECE" filter="url(#fog0qxvgls65w)" height="30.2969" style="stroke: #A80036; stroke-width: 1.5;" width="110" x="773" y="1316.9609"/><text fill="#000000" font-family="sans-serif" font-size="14" lengthAdjust="spacingAndGlyphs" textLength="96" x="780" y="1336.9561">ErrorMessage</text><rect fill="#FEFECE" filter="url(#fog0qxvgls65w)" height="30.2969" style="stroke: #A80036; stroke-width: 1.5;" width="77" x="184" y="1362.2578"/><text fill="#000000" font-family="sans-serif" font-size="14" lengthAdjust="spacingAndGlyphs" textLength="63" x="191" y="1382.2529">Message</text><line style="stroke: #A80036; stroke-width: 1.0; stroke-dasharray: 5.0,5.0;" x1="35" x2="35" y1="38.2969" y2="1824.3516"/><line style="stroke: #A80036; stroke-width: 1.0; stroke-dasharray: 5.0,5.0;" x1="123" x2="123" y1="38.2969" y2="1824.3516"/><line style="stroke: #A80036; stroke-width: 1.0; stroke-dasharray: 5.0,5.0;" x1="224" x2="224" y1="1394.9063" y2="1824.3516"/><line style="stroke: #A80036; stroke-width: 1.0; stroke-dasharray: 5.0,5.0;" x1="336" x2="336" y1="38.2969" y2="1824.3516"/><line style="stroke: #A80036; stroke-width: 1.0; stroke-dasharray: 5.0,5.0;" x1="518" x2="518" y1="1245.0156" y2="1824.3516"/><line style="stroke: #A80036; stroke-width: 1.0; stroke-dasharray: 5.0,5.0;" x1="701" x2="701" y1="1304.3125" y2="1824.3516"/><line style="stroke: #A80036; stroke-width: 1.0; stroke-dasharray: 5.0,5.0;" x1="830" x2="830" y1="1349.6094" y2="1824.3516"/><line style="stroke: #A80036; stroke-width: 1.0; stroke-dasharray: 5.0,5.0;" x1="949" x2="949" y1="38.2969" y2="1824.3516"/><rect fill="#FEFECE" filter="url(#fog0qxvgls65w)" height="30.2969" style="stroke: #A80036; stroke-width: 1.5;" width="50" x="8" y="3"/><text fill="#000000" font-family="sans-serif" font-size="14" lengthAdjust="spacingAndGlyphs" textLength="36" x="15" y="22.9951">Actor</text><rect fill="#FEFECE" filter="url(#fog0qxvgls65w)" height="30.2969" style="stroke: #A80036; stroke-width: 1.5;" width="50" x="8" y="1823.3516"/><text fill="#000000" font-family="sans-serif" font-size="14" lengthAdjust="spacingAndGlyphs" textLength="36" x="15" y="1843.3467">Actor</text><rect fill="#FEFECE" filter="url(#fog0qxvgls65w)" height="30.2969" style="stroke: #A80036; stroke-width: 1.5;" width="98" x="72" y="3"/><text fill="#000000" font-family="sans-serif" font-size="14" lengthAdjust="spacingAndGlyphs" textLength="84" x="79" y="22.9951">LoginServlet</text><rect fill="#FEFECE" filter="url(#fog0qxvgls65w)" height="30.2969" style="stroke: #A80036; stroke-width: 1.5;" width="98" x="72" y="1823.3516"/><text fill="#000000" font-family="sans-serif" font-size="14" lengthAdjust="spacingAndGlyphs" textLength="84" x="79" y="1843.3467">LoginServlet</text><rect fill="#FEFECE" filter="url(#fog0qxvgls65w)" height="30.2969" style="stroke: #A80036; stroke-width: 1.5;" width="77" x="184" y="1823.3516"/><text fill="#000000" font-family="sans-serif" font-size="14" lengthAdjust="spacingAndGlyphs" textLength="63" x="191" y="1843.3467">Message</text><rect fill="#FEFECE" filter="url(#fog0qxvgls65w)" height="30.2969" style="stroke: #A80036; stroke-width: 1.5;" width="118" x="275" y="3"/><text fill="#000000" font-family="sans-serif" font-size="14" lengthAdjust="spacingAndGlyphs" textLength="104" x="282" y="22.9951">AbstractServlet</text><rect fill="#FEFECE" filter="url(#fog0qxvgls65w)" height="30.2969" style="stroke: #A80036; stroke-width: 1.5;" width="118" x="275" y="1823.3516"/><text fill="#000000" font-family="sans-serif" font-size="14" lengthAdjust="spacingAndGlyphs" textLength="104" x="282" y="1843.3467">AbstractServlet</text><rect fill="#FEFECE" filter="url(#fog0qxvgls65w)" height="30.2969" style="stroke: #A80036; stroke-width: 1.5;" width="219" x="407" y="1823.3516"/><text fill="#000000" font-family="sans-serif" font-size="14" lengthAdjust="spacingAndGlyphs" textLength="205" x="414" y="1843.3467">ListProductCategoryDatabase</text><rect fill="#FEFECE" filter="url(#fog0qxvgls65w)" height="30.2969" style="stroke: #A80036; stroke-width: 1.5;" width="119" x="640" y="1823.3516"/><text fill="#000000" font-family="sans-serif" font-size="14" lengthAdjust="spacingAndGlyphs" textLength="105" x="647" y="1843.3467">SqlInternalError</text><rect fill="#FEFECE" filter="url(#fog0qxvgls65w)" height="30.2969" style="stroke: #A80036; stroke-width: 1.5;" width="110" x="773" y="1823.3516"/><text fill="#000000" font-family="sans-serif" font-size="14" lengthAdjust="spacingAndGlyphs" textLength="96" x="780" y="1843.3467">ErrorMessage</text><rect fill="#FEFECE" filter="url(#fog0qxvgls65w)" height="30.2969" style="stroke: #A80036; stroke-width: 1.5;" width="101" x="897" y="3"/><text fill="#000000" font-family="sans-serif" font-size="14" lengthAdjust="spacingAndGlyphs" textLength="87" x="904" y="22.9951">GenericError</text><rect fill="#FEFECE" filter="url(#fog0qxvgls65w)" height="30.2969" style="stroke: #A80036; stroke-width: 1.5;" width="101" x="897" y="1823.3516"/><text fill="#000000" font-family="sans-serif" font-size="14" lengthAdjust="spacingAndGlyphs" textLength="87" x="904" y="1843.3467">GenericError</text><rect fill="#FFFFFF" filter="url(#fog0qxvgls65w)" height="1736.9219" style="stroke: #A80036; stroke-width: 1.0;" width="10" x="118" y="69.4297"/><rect fill="#FFFFFF" filter="url(#fog0qxvgls65w)" height="20.1641" style="stroke: #A80036; stroke-width: 1.0;" width="10" x="219.5" y="108.5625"/><rect fill="#FFFFFF" filter="url(#fog0qxvgls65w)" height="14" style="stroke: #A80036; stroke-width: 1.0;" width="10" x="219.5" y="186.9922"/><rect fill="#FFFFFF" filter="url(#fog0qxvgls65w)" height="20.1641" style="stroke: #A80036; stroke-width: 1.0;" width="10" x="219.5" y="502.2813"/><rect fill="#FFFFFF" filter="url(#fog0qxvgls65w)" height="14" style="stroke: #A80036; stroke-width: 1.0;" width="10" x="219.5" y="621.7109"/><rect fill="#FFFFFF" filter="url(#fog0qxvgls65w)" height="20.1641" style="stroke: #A80036; stroke-width: 1.0;" width="10" x="219.5" y="784.9766"/><rect fill="#FFFFFF" filter="url(#fog0qxvgls65w)" height="14" style="stroke: #A80036; stroke-width: 1.0;" width="10" x="219.5" y="863.4063"/><rect fill="#FFFFFF" filter="url(#fog0qxvgls65w)" height="20.1641" style="stroke: #A80036; stroke-width: 1.0;" width="10" x="219.5" y="999.6719"/><rect fill="#FFFFFF" filter="url(#fog0qxvgls65w)" height="14" style="stroke: #A80036; stroke-width: 1.0;" width="10" x="219.5" y="1078.1016"/><rect fill="#FFFFFF" filter="url(#fog0qxvgls65w)" height="20.1641" style="stroke: #A80036; stroke-width: 1.0;" width="10" x="219.5" y="1393.3906"/><rect fill="#FFFFFF" filter="url(#fog0qxvgls65w)" height="14" style="stroke: #A80036; stroke-width: 1.0;" width="10" x="219.5" y="1512.8203"/><rect fill="#FFFFFF" filter="url(#fog0qxvgls65w)" height="126.2656" style="stroke: #A80036; stroke-width: 1.0;" width="10" x="331" y="157.8594"/><rect fill="#FFFFFF" filter="url(#fog0qxvgls65w)" height="25.1328" style="stroke: #A80036; stroke-width: 1.0;" width="10" x="336" y="237.9922"/><rect fill="#FFFFFF" filter="url(#fog0qxvgls65w)" height="432.5859" style="stroke: #A80036; stroke-width: 1.0;" width="10" x="331" y="313.2578"/><rect fill="#FFFFFF" filter="url(#fog0qxvgls65w)" height="137.3984" style="stroke: #A80036; stroke-width: 1.0;" width="10" x="336" y="587.4453"/><rect fill="#FFFFFF" filter="url(#fog0qxvgls65w)" height="25.1328" style="stroke: #A80036; stroke-width: 1.0;" width="10" x="341" y="672.7109"/><rect fill="#FFFFFF" filter="url(#fog0qxvgls65w)" height="126.2656" style="stroke: #A80036; stroke-width: 1.0;" width="10" x="331" y="834.2734"/><rect fill="#FFFFFF" filter="url(#fog0qxvgls65w)" height="25.1328" style="stroke: #A80036; stroke-width: 1.0;" width="10" x="336" y="914.4063"/><rect fill="#FFFFFF" filter="url(#fog0qxvgls65w)" height="126.2656" style="stroke: #A80036; stroke-width: 1.0;" width="10" x="331" y="1048.9688"/><rect fill="#FFFFFF" filter="url(#fog0qxvgls65w)" height="25.1328" style="stroke: #A80036; stroke-width: 1.0;" width="10" x="336" y="1129.1016"/><rect fill="#FFFFFF" filter="url(#fog0qxvgls65w)" height="432.5859" style="stroke: #A80036; stroke-width: 1.0;" width="10" x="331" y="1204.3672"/><rect fill="#FFFFFF" filter="url(#fog0qxvgls65w)" height="137.3984" style="stroke: #A80036; stroke-width: 1.0;" width="10" x="336" y="1478.5547"/><rect fill="#FFFFFF" filter="url(#fog0qxvgls65w)" height="25.1328" style="stroke: #A80036; stroke-width: 1.0;" width="10" x="341" y="1563.8203"/><rect fill="#FFFFFF" filter="url(#fog0qxvgls65w)" height="126.2656" style="stroke: #A80036; stroke-width: 1.0;" width="10" x="331" y="1666.0859"/><rect fill="#FFFFFF" filter="url(#fog0qxvgls65w)" height="25.1328" style="stroke: #A80036; stroke-width: 1.0;" width="10" x="336" y="1746.2188"/><rect fill="#FFFFFF" filter="url(#fog0qxvgls65w)" height="20.1641" style="stroke: #A80036; stroke-width: 1.0;" width="10" x="513.5" y="352.3906"/><rect fill="#FFFFFF" filter="url(#fog0qxvgls65w)" height="20.1641" style="stroke: #A80036; stroke-width: 1.0;" width="10" x="513.5" y="1243.5"/><rect fill="#FFFFFF" filter="url(#fog0qxvgls65w)" height="138.7578" style="stroke: #A80036; stroke-width: 1.0;" width="10" x="696.5" y="411.6875"/><rect fill="#FFFFFF" filter="url(#fog0qxvgls65w)" height="138.7578" style="stroke: #A80036; stroke-width: 1.0;" width="10" x="696.5" y="1302.7969"/><rect fill="#FFFFFF" filter="url(#fog0qxvgls65w)" height="79.4609" style="stroke: #A80036; stroke-width: 1.0;" width="10" x="825" y="456.9844"/><rect fill="#FFFFFF" filter="url(#fog0qxvgls65w)" height="79.4609" style="stroke: #A80036; stroke-width: 1.0;" width="10" x="825" y="1348.0938"/><rect fill="#FFFFFF" filter="url(#fog0qxvgls65w)" height="14" style="stroke: #A80036; stroke-width: 1.0;" width="10" x="944.5" y="1695.2188"/><polygon fill="#A80036" points="106,65.4297,116,69.4297,106,73.4297,110,69.4297" style="stroke: #A80036; stroke-width: 1.0;"/><line style="stroke: #A80036; stroke-width: 1.0;" x1="35" x2="112" y1="69.4297" y2="69.4297"/><text fill="#000000" font-family="sans-serif" font-size="13" lengthAdjust="spacingAndGlyphs" textLength="39" x="42" y="64.3638">doGet</text><polygon fill="#A80036" points="172,94.5625,182,98.5625,172,102.5625,176,98.5625" style="stroke: #A80036; stroke-width: 1.0;"/><line style="stroke: #A80036; stroke-width: 1.0;" x1="128" x2="178" y1="98.5625" y2="98.5625"/><text fill="#000000" font-family="sans-serif" font-size="13" lengthAdjust="spacingAndGlyphs" textLength="25" x="135" y="93.4966">new</text><rect fill="#FEFECE" filter="url(#fog0qxvgls65w)" height="30.2969" style="stroke: #A80036; stroke-width: 1.5;" width="77" x="184" y="77.4297"/><text fill="#000000" font-family="sans-serif" font-size="14" lengthAdjust="spacingAndGlyphs" textLength="63" x="191" y="97.4248">Message</text><polygon fill="#A80036" points="139,124.7266,129,128.7266,139,132.7266,135,128.7266" style="stroke: #A80036; stroke-width: 1.0;"/><line style="stroke: #A80036; stroke-width: 1.0; stroke-dasharray: 2.0,2.0;" x1="133" x2="223.5" y1="128.7266" y2="128.7266"/><polygon fill="#A80036" points="319,153.8594,329,157.8594,319,161.8594,323,157.8594" style="stroke: #A80036; stroke-width: 1.0;"/><line style="stroke: #A80036; stroke-width: 1.0;" x1="128" x2="325" y1="157.8594" y2="157.8594"/><text fill="#000000" font-family="sans-serif" font-size="13" lengthAdjust="spacingAndGlyphs" textLength="154" x="135" y="152.7935">writeMessageOrRedirect</text><polygon fill="#A80036" points="240.5,182.9922,230.5,186.9922,240.5,190.9922,236.5,186.9922" style="stroke: #A80036; stroke-width: 1.0;"/><line style="stroke: #A80036; stroke-width: 1.0;" x1="234.5" x2="330" y1="186.9922" y2="186.9922"/><text fill="#000000" font-family="sans-serif" font-size="13" lengthAdjust="spacingAndGlyphs" textLength="45" x="246.5" y="181.9263">toJSON</text><polygon fill="#A80036" points="319,196.9922,329,200.9922,319,204.9922,323,200.9922" style="stroke: #A80036; stroke-width: 1.0;"/><line style="stroke: #A80036; stroke-width: 1.0; stroke-dasharray: 2.0,2.0;" x1="224.5" x2="325" y1="200.9922" y2="200.9922"/><line style="stroke: #A80036; stroke-width: 1.0;" x1="341" x2="388" y1="225.125" y2="225.125"/><line style="stroke: #A80036; stroke-width: 1.0;" x1="388" x2="388" y1="225.125" y2="238.125"/><line style="stroke: #A80036; stroke-width: 1.0;" x1="347" x2="388" y1="238.125" y2="238.125"/><polygon fill="#A80036" points="357,234.125,347,238.125,357,242.125,353,238.125" style="stroke: #A80036; stroke-width: 1.0;"/><text fill="#000000" font-family="sans-serif" font-size="13" lengthAdjust="spacingAndGlyphs" textLength="62" x="353" y="220.0591">writeJSON</text><line style="stroke: #A80036; stroke-width: 1.0; stroke-dasharray: 2.0,2.0;" x1="346" x2="388" y1="262.125" y2="262.125"/><line style="stroke: #A80036; stroke-width: 1.0; stroke-dasharray: 2.0,2.0;" x1="388" x2="388" y1="262.125" y2="275.125"/><line style="stroke: #A80036; stroke-width: 1.0; stroke-dasharray: 2.0,2.0;" x1="341" x2="388" y1="275.125" y2="275.125"/><polygon fill="#A80036" points="351,271.125,341,275.125,351,279.125,347,275.125" style="stroke: #A80036; stroke-width: 1.0;"/><polygon fill="#A80036" points="139,280.125,129,284.125,139,288.125,135,284.125" style="stroke: #A80036; stroke-width: 1.0;"/><line style="stroke: #A80036; stroke-width: 1.0; stroke-dasharray: 2.0,2.0;" x1="133" x2="335" y1="284.125" y2="284.125"/><polygon fill="#A80036" points="319,309.2578,329,313.2578,319,317.2578,323,313.2578" style="stroke: #A80036; stroke-width: 1.0;"/><line style="stroke: #A80036; stroke-width: 1.0;" x1="128" x2="325" y1="313.2578" y2="313.2578"/><text fill="#000000" font-family="sans-serif" font-size="13" lengthAdjust="spacingAndGlyphs" textLength="48" x="135" y="308.1919">writeJsp</text><polygon fill="#A80036" points="395,338.3906,405,342.3906,395,346.3906,399,342.3906" style="stroke: #A80036; stroke-width: 1.0;"/><line style="stroke: #A80036; stroke-width: 1.0;" x1="341" x2="401" y1="342.3906" y2="342.3906"/><text fill="#000000" font-family="sans-serif" font-size="13" lengthAdjust="spacingAndGlyphs" textLength="25" x="348" y="337.3247">new</text><rect fill="#FEFECE" filter="url(#fog0qxvgls65w)" height="30.2969" style="stroke: #A80036; stroke-width: 1.5;" width="219" x="407" y="321.2578"/><text fill="#000000" font-family="sans-serif" font-size="14" lengthAdjust="spacingAndGlyphs" textLength="205" x="414" y="341.2529">ListProductCategoryDatabase</text><polygon fill="#A80036" points="352,368.5547,342,372.5547,352,376.5547,348,372.5547" style="stroke: #A80036; stroke-width: 1.0;"/><line style="stroke: #A80036; stroke-width: 1.0; stroke-dasharray: 2.0,2.0;" x1="346" x2="517.5" y1="372.5547" y2="372.5547"/><polygon fill="#A80036" points="628,397.6875,638,401.6875,628,405.6875,632,401.6875" style="stroke: #A80036; stroke-width: 1.0;"/><line style="stroke: #A80036; stroke-width: 1.0;" x1="341" x2="634" y1="401.6875" y2="401.6875"/><text fill="#000000" font-family="sans-serif" font-size="13" lengthAdjust="spacingAndGlyphs" textLength="25" x="348" y="396.6216">new</text><rect fill="#FEFECE" filter="url(#fog0qxvgls65w)" height="30.2969" style="stroke: #A80036; stroke-width: 1.5;" width="119" x="640" y="380.5547"/><text fill="#000000" font-family="sans-serif" font-size="14" lengthAdjust="spacingAndGlyphs" textLength="105" x="647" y="400.5498">SqlInternalError</text><polygon fill="#A80036" points="761,442.9844,771,446.9844,761,450.9844,765,446.9844" style="stroke: #A80036; stroke-width: 1.0;"/><line style="stroke: #A80036; stroke-width: 1.0;" x1="706.5" x2="767" y1="446.9844" y2="446.9844"/><text fill="#000000" font-family="sans-serif" font-size="13" lengthAdjust="spacingAndGlyphs" textLength="25" x="713.5" y="441.9185">new</text><rect fill="#FEFECE" filter="url(#fog0qxvgls65w)" height="30.2969" style="stroke: #A80036; stroke-width: 1.5;" width="110" x="773" y="425.8516"/><text fill="#000000" font-family="sans-serif" font-size="14" lengthAdjust="spacingAndGlyphs" textLength="96" x="780" y="445.8467">ErrorMessage</text><polygon fill="#A80036" points="276,488.2813,266,492.2813,276,496.2813,272,492.2813" style="stroke: #A80036; stroke-width: 1.0;"/><line style="stroke: #A80036; stroke-width: 1.0;" x1="270" x2="824" y1="492.2813" y2="492.2813"/><text fill="#000000" font-family="sans-serif" font-size="13" lengthAdjust="spacingAndGlyphs" textLength="25" x="282" y="487.2153">new</text><rect fill="#FEFECE" filter="url(#fog0qxvgls65w)" height="30.2969" style="stroke: #A80036; stroke-width: 1.5;" width="77" x="184" y="471.1484"/><text fill="#000000" font-family="sans-serif" font-size="14" lengthAdjust="spacingAndGlyphs" textLength="63" x="191" y="491.1436">Message</text><polygon fill="#A80036" points="813,518.4453,823,522.4453,813,526.4453,817,522.4453" style="stroke: #A80036; stroke-width: 1.0;"/><line style="stroke: #A80036; stroke-width: 1.0; stroke-dasharray: 2.0,2.0;" x1="224.5" x2="819" y1="522.4453" y2="522.4453"/><polygon fill="#A80036" points="717.5,532.4453,707.5,536.4453,717.5,540.4453,713.5,536.4453" style="stroke: #A80036; stroke-width: 1.0;"/><line style="stroke: #A80036; stroke-width: 1.0; stroke-dasharray: 2.0,2.0;" x1="711.5" x2="829" y1="536.4453" y2="536.4453"/><polygon fill="#A80036" points="352,546.4453,342,550.4453,352,554.4453,348,550.4453" style="stroke: #A80036; stroke-width: 1.0;"/><line style="stroke: #A80036; stroke-width: 1.0; stroke-dasharray: 2.0,2.0;" x1="346" x2="700.5" y1="550.4453" y2="550.4453"/><line style="stroke: #A80036; stroke-width: 1.0;" x1="341" x2="388" y1="574.5781" y2="574.5781"/><line style="stroke: #A80036; stroke-width: 1.0;" x1="388" x2="388" y1="574.5781" y2="587.5781"/><line style="stroke: #A80036; stroke-width: 1.0;" x1="347" x2="388" y1="587.5781" y2="587.5781"/><polygon fill="#A80036" points="357,583.5781,347,587.5781,357,591.5781,353,587.5781" style="stroke: #A80036; stroke-width: 1.0;"/><text fill="#000000" font-family="sans-serif" font-size="13" lengthAdjust="spacingAndGlyphs" textLength="61" x="353" y="569.5122">writeError</text><polygon fill="#A80036" points="240.5,617.7109,230.5,621.7109,240.5,625.7109,236.5,621.7109" style="stroke: #A80036; stroke-width: 1.0;"/><line style="stroke: #A80036; stroke-width: 1.0;" x1="234.5" x2="335" y1="621.7109" y2="621.7109"/><text fill="#000000" font-family="sans-serif" font-size="13" lengthAdjust="spacingAndGlyphs" textLength="45" x="246.5" y="616.645">toJSON</text><polygon fill="#A80036" points="324,631.7109,334,635.7109,324,639.7109,328,635.7109" style="stroke: #A80036; stroke-width: 1.0;"/><line style="stroke: #A80036; stroke-width: 1.0; stroke-dasharray: 2.0,2.0;" x1="224.5" x2="330" y1="635.7109" y2="635.7109"/><line style="stroke: #A80036; stroke-width: 1.0;" x1="346" x2="393" y1="659.8438" y2="659.8438"/><line style="stroke: #A80036; stroke-width: 1.0;" x1="393" x2="393" y1="659.8438" y2="672.8438"/><line style="stroke: #A80036; stroke-width: 1.0;" x1="352" x2="393" y1="672.8438" y2="672.8438"/><polygon fill="#A80036" points="362,668.8438,352,672.8438,362,676.8438,358,672.8438" style="stroke: #A80036; stroke-width: 1.0;"/><text fill="#000000" font-family="sans-serif" font-size="13" lengthAdjust="spacingAndGlyphs" textLength="62" x="358" y="654.7778">writeJSON</text><line style="stroke: #A80036; stroke-width: 1.0; stroke-dasharray: 2.0,2.0;" x1="351" x2="393" y1="696.8438" y2="696.8438"/><line style="stroke: #A80036; stroke-width: 1.0; stroke-dasharray: 2.0,2.0;" x1="393" x2="393" y1="696.8438" y2="709.8438"/><line style="stroke: #A80036; stroke-width: 1.0; stroke-dasharray: 2.0,2.0;" x1="346" x2="393" y1="709.8438" y2="709.8438"/><polygon fill="#A80036" points="356,705.8438,346,709.8438,356,713.8438,352,709.8438" style="stroke: #A80036; stroke-width: 1.0;"/><line style="stroke: #A80036; stroke-width: 1.0; stroke-dasharray: 2.0,2.0;" x1="346" x2="388" y1="723.8438" y2="723.8438"/><line style="stroke: #A80036; stroke-width: 1.0; stroke-dasharray: 2.0,2.0;" x1="388" x2="388" y1="723.8438" y2="736.8438"/><line style="stroke: #A80036; stroke-width: 1.0; stroke-dasharray: 2.0,2.0;" x1="341" x2="388" y1="736.8438" y2="736.8438"/><polygon fill="#A80036" points="351,732.8438,341,736.8438,351,740.8438,347,736.8438" style="stroke: #A80036; stroke-width: 1.0;"/><polygon fill="#A80036" points="139,741.8438,129,745.8438,139,749.8438,135,745.8438" style="stroke: #A80036; stroke-width: 1.0;"/><line style="stroke: #A80036; stroke-width: 1.0; stroke-dasharray: 2.0,2.0;" x1="133" x2="335" y1="745.8438" y2="745.8438"/><polygon fill="#A80036" points="172,770.9766,182,774.9766,172,778.9766,176,774.9766" style="stroke: #A80036; stroke-width: 1.0;"/><line style="stroke: #A80036; stroke-width: 1.0;" x1="128" x2="178" y1="774.9766" y2="774.9766"/><text fill="#000000" font-family="sans-serif" font-size="13" lengthAdjust="spacingAndGlyphs" textLength="25" x="135" y="769.9106">new</text><rect fill="#FEFECE" filter="url(#fog0qxvgls65w)" height="30.2969" style="stroke: #A80036; stroke-width: 1.5;" width="77" x="184" y="753.8438"/><text fill="#000000" font-family="sans-serif" font-size="14" lengthAdjust="spacingAndGlyphs" textLength="63" x="191" y="773.8389">Message</text><polygon fill="#A80036" points="139,801.1406,129,805.1406,139,809.1406,135,805.1406" style="stroke: #A80036; stroke-width: 1.0;"/><line style="stroke: #A80036; stroke-width: 1.0; stroke-dasharray: 2.0,2.0;" x1="133" x2="223.5" y1="805.1406" y2="805.1406"/><polygon fill="#A80036" points="319,830.2734,329,834.2734,319,838.2734,323,834.2734" style="stroke: #A80036; stroke-width: 1.0;"/><line style="stroke: #A80036; stroke-width: 1.0;" x1="128" x2="325" y1="834.2734" y2="834.2734"/><text fill="#000000" font-family="sans-serif" font-size="13" lengthAdjust="spacingAndGlyphs" textLength="154" x="135" y="829.2075">writeMessageOrRedirect</text><polygon fill="#A80036" points="240.5,859.4063,230.5,863.4063,240.5,867.4063,236.5,863.4063" style="stroke: #A80036; stroke-width: 1.0;"/><line style="stroke: #A80036; stroke-width: 1.0;" x1="234.5" x2="330" y1="863.4063" y2="863.4063"/><text fill="#000000" font-family="sans-serif" font-size="13" lengthAdjust="spacingAndGlyphs" textLength="45" x="246.5" y="858.3403">toJSON</text><polygon fill="#A80036" points="319,873.4063,329,877.4063,319,881.4063,323,877.4063" style="stroke: #A80036; stroke-width: 1.0;"/><line style="stroke: #A80036; stroke-width: 1.0; stroke-dasharray: 2.0,2.0;" x1="224.5" x2="325" y1="877.4063" y2="877.4063"/><line style="stroke: #A80036; stroke-width: 1.0;" x1="341" x2="388" y1="901.5391" y2="901.5391"/><line style="stroke: #A80036; stroke-width: 1.0;" x1="388" x2="388" y1="901.5391" y2="914.5391"/><line style="stroke: #A80036; stroke-width: 1.0;" x1="347" x2="388" y1="914.5391" y2="914.5391"/><polygon fill="#A80036" points="357,910.5391,347,914.5391,357,918.5391,353,914.5391" style="stroke: #A80036; stroke-width: 1.0;"/><text fill="#000000" font-family="sans-serif" font-size="13" lengthAdjust="spacingAndGlyphs" textLength="62" x="353" y="896.4731">writeJSON</text><line style="stroke: #A80036; stroke-width: 1.0; stroke-dasharray: 2.0,2.0;" x1="346" x2="388" y1="938.5391" y2="938.5391"/><line style="stroke: #A80036; stroke-width: 1.0; stroke-dasharray: 2.0,2.0;" x1="388" x2="388" y1="938.5391" y2="951.5391"/><line style="stroke: #A80036; stroke-width: 1.0; stroke-dasharray: 2.0,2.0;" x1="341" x2="388" y1="951.5391" y2="951.5391"/><polygon fill="#A80036" points="351,947.5391,341,951.5391,351,955.5391,347,951.5391" style="stroke: #A80036; stroke-width: 1.0;"/><polygon fill="#A80036" points="139,956.5391,129,960.5391,139,964.5391,135,960.5391" style="stroke: #A80036; stroke-width: 1.0;"/><line style="stroke: #A80036; stroke-width: 1.0; stroke-dasharray: 2.0,2.0;" x1="133" x2="335" y1="960.5391" y2="960.5391"/><polygon fill="#A80036" points="172,985.6719,182,989.6719,172,993.6719,176,989.6719" style="stroke: #A80036; stroke-width: 1.0;"/><line style="stroke: #A80036; stroke-width: 1.0;" x1="128" x2="178" y1="989.6719" y2="989.6719"/><text fill="#000000" font-family="sans-serif" font-size="13" lengthAdjust="spacingAndGlyphs" textLength="25" x="135" y="984.606">new</text><rect fill="#FEFECE" filter="url(#fog0qxvgls65w)" height="30.2969" style="stroke: #A80036; stroke-width: 1.5;" width="77" x="184" y="968.5391"/><text fill="#000000" font-family="sans-serif" font-size="14" lengthAdjust="spacingAndGlyphs" textLength="63" x="191" y="988.5342">Message</text><polygon fill="#A80036" points="139,1015.8359,129,1019.8359,139,1023.8359,135,1019.8359" style="stroke: #A80036; stroke-width: 1.0;"/><line style="stroke: #A80036; stroke-width: 1.0; stroke-dasharray: 2.0,2.0;" x1="133" x2="223.5" y1="1019.8359" y2="1019.8359"/><polygon fill="#A80036" points="319,1044.9688,329,1048.9688,319,1052.9688,323,1048.9688" style="stroke: #A80036; stroke-width: 1.0;"/><line style="stroke: #A80036; stroke-width: 1.0;" x1="128" x2="325" y1="1048.9688" y2="1048.9688"/><text fill="#000000" font-family="sans-serif" font-size="13" lengthAdjust="spacingAndGlyphs" textLength="154" x="135" y="1043.9028">writeMessageOrRedirect</text><polygon fill="#A80036" points="240.5,1074.1016,230.5,1078.1016,240.5,1082.1016,236.5,1078.1016" style="stroke: #A80036; stroke-width: 1.0;"/><line style="stroke: #A80036; stroke-width: 1.0;" x1="234.5" x2="330" y1="1078.1016" y2="1078.1016"/><text fill="#000000" font-family="sans-serif" font-size="13" lengthAdjust="spacingAndGlyphs" textLength="45" x="246.5" y="1073.0356">toJSON</text><polygon fill="#A80036" points="319,1088.1016,329,1092.1016,319,1096.1016,323,1092.1016" style="stroke: #A80036; stroke-width: 1.0;"/><line style="stroke: #A80036; stroke-width: 1.0; stroke-dasharray: 2.0,2.0;" x1="224.5" x2="325" y1="1092.1016" y2="1092.1016"/><line style="stroke: #A80036; stroke-width: 1.0;" x1="341" x2="388" y1="1116.2344" y2="1116.2344"/><line style="stroke: #A80036; stroke-width: 1.0;" x1="388" x2="388" y1="1116.2344" y2="1129.2344"/><line style="stroke: #A80036; stroke-width: 1.0;" x1="347" x2="388" y1="1129.2344" y2="1129.2344"/><polygon fill="#A80036" points="357,1125.2344,347,1129.2344,357,1133.2344,353,1129.2344" style="stroke: #A80036; stroke-width: 1.0;"/><text fill="#000000" font-family="sans-serif" font-size="13" lengthAdjust="spacingAndGlyphs" textLength="62" x="353" y="1111.1685">writeJSON</text><line style="stroke: #A80036; stroke-width: 1.0; stroke-dasharray: 2.0,2.0;" x1="346" x2="388" y1="1153.2344" y2="1153.2344"/><line style="stroke: #A80036; stroke-width: 1.0; stroke-dasharray: 2.0,2.0;" x1="388" x2="388" y1="1153.2344" y2="1166.2344"/><line style="stroke: #A80036; stroke-width: 1.0; stroke-dasharray: 2.0,2.0;" x1="341" x2="388" y1="1166.2344" y2="1166.2344"/><polygon fill="#A80036" points="351,1162.2344,341,1166.2344,351,1170.2344,347,1166.2344" style="stroke: #A80036; stroke-width: 1.0;"/><polygon fill="#A80036" points="139,1171.2344,129,1175.2344,139,1179.2344,135,1175.2344" style="stroke: #A80036; stroke-width: 1.0;"/><line style="stroke: #A80036; stroke-width: 1.0; stroke-dasharray: 2.0,2.0;" x1="133" x2="335" y1="1175.2344" y2="1175.2344"/><polygon fill="#A80036" points="319,1200.3672,329,1204.3672,319,1208.3672,323,1204.3672" style="stroke: #A80036; stroke-width: 1.0;"/><line style="stroke: #A80036; stroke-width: 1.0;" x1="128" x2="325" y1="1204.3672" y2="1204.3672"/><text fill="#000000" font-family="sans-serif" font-size="13" lengthAdjust="spacingAndGlyphs" textLength="48" x="135" y="1199.3013">writeJsp</text><polygon fill="#A80036" points="395,1229.5,405,1233.5,395,1237.5,399,1233.5" style="stroke: #A80036; stroke-width: 1.0;"/><line style="stroke: #A80036; stroke-width: 1.0;" x1="341" x2="401" y1="1233.5" y2="1233.5"/><text fill="#000000" font-family="sans-serif" font-size="13" lengthAdjust="spacingAndGlyphs" textLength="25" x="348" y="1228.4341">new</text><rect fill="#FEFECE" filter="url(#fog0qxvgls65w)" height="30.2969" style="stroke: #A80036; stroke-width: 1.5;" width="219" x="407" y="1212.3672"/><text fill="#000000" font-family="sans-serif" font-size="14" lengthAdjust="spacingAndGlyphs" textLength="205" x="414" y="1232.3623">ListProductCategoryDatabase</text><polygon fill="#A80036" points="352,1259.6641,342,1263.6641,352,1267.6641,348,1263.6641" style="stroke: #A80036; stroke-width: 1.0;"/><line style="stroke: #A80036; stroke-width: 1.0; stroke-dasharray: 2.0,2.0;" x1="346" x2="517.5" y1="1263.6641" y2="1263.6641"/><polygon fill="#A80036" points="628,1288.7969,638,1292.7969,628,1296.7969,632,1292.7969" style="stroke: #A80036; stroke-width: 1.0;"/><line style="stroke: #A80036; stroke-width: 1.0;" x1="341" x2="634" y1="1292.7969" y2="1292.7969"/><text fill="#000000" font-family="sans-serif" font-size="13" lengthAdjust="spacingAndGlyphs" textLength="25" x="348" y="1287.731">new</text><rect fill="#FEFECE" filter="url(#fog0qxvgls65w)" height="30.2969" style="stroke: #A80036; stroke-width: 1.5;" width="119" x="640" y="1271.6641"/><text fill="#000000" font-family="sans-serif" font-size="14" lengthAdjust="spacingAndGlyphs" textLength="105" x="647" y="1291.6592">SqlInternalError</text><polygon fill="#A80036" points="761,1334.0938,771,1338.0938,761,1342.0938,765,1338.0938" style="stroke: #A80036; stroke-width: 1.0;"/><line style="stroke: #A80036; stroke-width: 1.0;" x1="706.5" x2="767" y1="1338.0938" y2="1338.0938"/><text fill="#000000" font-family="sans-serif" font-size="13" lengthAdjust="spacingAndGlyphs" textLength="25" x="713.5" y="1333.0278">new</text><rect fill="#FEFECE" filter="url(#fog0qxvgls65w)" height="30.2969" style="stroke: #A80036; stroke-width: 1.5;" width="110" x="773" y="1316.9609"/><text fill="#000000" font-family="sans-serif" font-size="14" lengthAdjust="spacingAndGlyphs" textLength="96" x="780" y="1336.9561">ErrorMessage</text><polygon fill="#A80036" points="276,1379.3906,266,1383.3906,276,1387.3906,272,1383.3906" style="stroke: #A80036; stroke-width: 1.0;"/><line style="stroke: #A80036; stroke-width: 1.0;" x1="270" x2="824" y1="1383.3906" y2="1383.3906"/><text fill="#000000" font-family="sans-serif" font-size="13" lengthAdjust="spacingAndGlyphs" textLength="25" x="282" y="1378.3247">new</text><rect fill="#FEFECE" filter="url(#fog0qxvgls65w)" height="30.2969" style="stroke: #A80036; stroke-width: 1.5;" width="77" x="184" y="1362.2578"/><text fill="#000000" font-family="sans-serif" font-size="14" lengthAdjust="spacingAndGlyphs" textLength="63" x="191" y="1382.2529">Message</text><polygon fill="#A80036" points="813,1409.5547,823,1413.5547,813,1417.5547,817,1413.5547" style="stroke: #A80036; stroke-width: 1.0;"/><line style="stroke: #A80036; stroke-width: 1.0; stroke-dasharray: 2.0,2.0;" x1="224.5" x2="819" y1="1413.5547" y2="1413.5547"/><polygon fill="#A80036" points="717.5,1423.5547,707.5,1427.5547,717.5,1431.5547,713.5,1427.5547" style="stroke: #A80036; stroke-width: 1.0;"/><line style="stroke: #A80036; stroke-width: 1.0; stroke-dasharray: 2.0,2.0;" x1="711.5" x2="829" y1="1427.5547" y2="1427.5547"/><polygon fill="#A80036" points="352,1437.5547,342,1441.5547,352,1445.5547,348,1441.5547" style="stroke: #A80036; stroke-width: 1.0;"/><line style="stroke: #A80036; stroke-width: 1.0; stroke-dasharray: 2.0,2.0;" x1="346" x2="700.5" y1="1441.5547" y2="1441.5547"/><line style="stroke: #A80036; stroke-width: 1.0;" x1="341" x2="388" y1="1465.6875" y2="1465.6875"/><line style="stroke: #A80036; stroke-width: 1.0;" x1="388" x2="388" y1="1465.6875" y2="1478.6875"/><line style="stroke: #A80036; stroke-width: 1.0;" x1="347" x2="388" y1="1478.6875" y2="1478.6875"/><polygon fill="#A80036" points="357,1474.6875,347,1478.6875,357,1482.6875,353,1478.6875" style="stroke: #A80036; stroke-width: 1.0;"/><text fill="#000000" font-family="sans-serif" font-size="13" lengthAdjust="spacingAndGlyphs" textLength="61" x="353" y="1460.6216">writeError</text><polygon fill="#A80036" points="240.5,1508.8203,230.5,1512.8203,240.5,1516.8203,236.5,1512.8203" style="stroke: #A80036; stroke-width: 1.0;"/><line style="stroke: #A80036; stroke-width: 1.0;" x1="234.5" x2="335" y1="1512.8203" y2="1512.8203"/><text fill="#000000" font-family="sans-serif" font-size="13" lengthAdjust="spacingAndGlyphs" textLength="45" x="246.5" y="1507.7544">toJSON</text><polygon fill="#A80036" points="324,1522.8203,334,1526.8203,324,1530.8203,328,1526.8203" style="stroke: #A80036; stroke-width: 1.0;"/><line style="stroke: #A80036; stroke-width: 1.0; stroke-dasharray: 2.0,2.0;" x1="224.5" x2="330" y1="1526.8203" y2="1526.8203"/><line style="stroke: #A80036; stroke-width: 1.0;" x1="346" x2="393" y1="1550.9531" y2="1550.9531"/><line style="stroke: #A80036; stroke-width: 1.0;" x1="393" x2="393" y1="1550.9531" y2="1563.9531"/><line style="stroke: #A80036; stroke-width: 1.0;" x1="352" x2="393" y1="1563.9531" y2="1563.9531"/><polygon fill="#A80036" points="362,1559.9531,352,1563.9531,362,1567.9531,358,1563.9531" style="stroke: #A80036; stroke-width: 1.0;"/><text fill="#000000" font-family="sans-serif" font-size="13" lengthAdjust="spacingAndGlyphs" textLength="62" x="358" y="1545.8872">writeJSON</text><line style="stroke: #A80036; stroke-width: 1.0; stroke-dasharray: 2.0,2.0;" x1="351" x2="393" y1="1587.9531" y2="1587.9531"/><line style="stroke: #A80036; stroke-width: 1.0; stroke-dasharray: 2.0,2.0;" x1="393" x2="393" y1="1587.9531" y2="1600.9531"/><line style="stroke: #A80036; stroke-width: 1.0; stroke-dasharray: 2.0,2.0;" x1="346" x2="393" y1="1600.9531" y2="1600.9531"/><polygon fill="#A80036" points="356,1596.9531,346,1600.9531,356,1604.9531,352,1600.9531" style="stroke: #A80036; stroke-width: 1.0;"/><line style="stroke: #A80036; stroke-width: 1.0; stroke-dasharray: 2.0,2.0;" x1="346" x2="388" y1="1614.9531" y2="1614.9531"/><line style="stroke: #A80036; stroke-width: 1.0; stroke-dasharray: 2.0,2.0;" x1="388" x2="388" y1="1614.9531" y2="1627.9531"/><line style="stroke: #A80036; stroke-width: 1.0; stroke-dasharray: 2.0,2.0;" x1="341" x2="388" y1="1627.9531" y2="1627.9531"/><polygon fill="#A80036" points="351,1623.9531,341,1627.9531,351,1631.9531,347,1627.9531" style="stroke: #A80036; stroke-width: 1.0;"/><polygon fill="#A80036" points="139,1632.9531,129,1636.9531,139,1640.9531,135,1636.9531" style="stroke: #A80036; stroke-width: 1.0;"/><line style="stroke: #A80036; stroke-width: 1.0; stroke-dasharray: 2.0,2.0;" x1="133" x2="335" y1="1636.9531" y2="1636.9531"/><polygon fill="#A80036" points="319,1662.0859,329,1666.0859,319,1670.0859,323,1666.0859" style="stroke: #A80036; stroke-width: 1.0;"/><line style="stroke: #A80036; stroke-width: 1.0;" x1="128" x2="325" y1="1666.0859" y2="1666.0859"/><text fill="#000000" font-family="sans-serif" font-size="13" lengthAdjust="spacingAndGlyphs" textLength="61" x="135" y="1661.02">writeError</text><polygon fill="#A80036" points="932.5,1691.2188,942.5,1695.2188,932.5,1699.2188,936.5,1695.2188" style="stroke: #A80036; stroke-width: 1.0;"/><line style="stroke: #A80036; stroke-width: 1.0;" x1="341" x2="938.5" y1="1695.2188" y2="1695.2188"/><text fill="#000000" font-family="sans-serif" font-size="13" lengthAdjust="spacingAndGlyphs" textLength="45" x="348" y="1690.1528">toJSON</text><polygon fill="#A80036" points="352,1705.2188,342,1709.2188,352,1713.2188,348,1709.2188" style="stroke: #A80036; stroke-width: 1.0;"/><line style="stroke: #A80036; stroke-width: 1.0; stroke-dasharray: 2.0,2.0;" x1="346" x2="948.5" y1="1709.2188" y2="1709.2188"/><line style="stroke: #A80036; stroke-width: 1.0;" x1="341" x2="388" y1="1733.3516" y2="1733.3516"/><line style="stroke: #A80036; stroke-width: 1.0;" x1="388" x2="388" y1="1733.3516" y2="1746.3516"/><line style="stroke: #A80036; stroke-width: 1.0;" x1="347" x2="388" y1="1746.3516" y2="1746.3516"/><polygon fill="#A80036" points="357,1742.3516,347,1746.3516,357,1750.3516,353,1746.3516" style="stroke: #A80036; stroke-width: 1.0;"/><text fill="#000000" font-family="sans-serif" font-size="13" lengthAdjust="spacingAndGlyphs" textLength="62" x="353" y="1728.2856">writeJSON</text><line style="stroke: #A80036; stroke-width: 1.0; stroke-dasharray: 2.0,2.0;" x1="346" x2="388" y1="1770.3516" y2="1770.3516"/><line style="stroke: #A80036; stroke-width: 1.0; stroke-dasharray: 2.0,2.0;" x1="388" x2="388" y1="1770.3516" y2="1783.3516"/><line style="stroke: #A80036; stroke-width: 1.0; stroke-dasharray: 2.0,2.0;" x1="341" x2="388" y1="1783.3516" y2="1783.3516"/><polygon fill="#A80036" points="351,1779.3516,341,1783.3516,351,1787.3516,347,1783.3516" style="stroke: #A80036; stroke-width: 1.0;"/><polygon fill="#A80036" points="139,1788.3516,129,1792.3516,139,1796.3516,135,1792.3516" style="stroke: #A80036; stroke-width: 1.0;"/><line style="stroke: #A80036; stroke-width: 1.0; stroke-dasharray: 2.0,2.0;" x1="133" x2="335" y1="1792.3516" y2="1792.3516"/><polygon fill="#A80036" points="46,1802.3516,36,1806.3516,46,1810.3516,42,1806.3516" style="stroke: #A80036; stroke-width: 1.0;"/><line style="stroke: #A80036; stroke-width: 1.0; stroke-dasharray: 2.0,2.0;" x1="40" x2="122" y1="1806.3516" y2="1806.3516"/><!--
@startuml
participant Actor
Actor -> LoginServlet : doGet
activate LoginServlet
create Message
LoginServlet -> Message : new
activate Message
Message - -> LoginServlet
deactivate Message
LoginServlet -> AbstractServlet : writeMessageOrRedirect
activate AbstractServlet
AbstractServlet -> Message : toJSON
activate Message
Message - -> AbstractServlet
deactivate Message
AbstractServlet -> AbstractServlet : writeJSON
activate AbstractServlet
AbstractServlet - -> AbstractServlet
deactivate AbstractServlet
AbstractServlet - -> LoginServlet
deactivate AbstractServlet
LoginServlet -> AbstractServlet : writeJsp
activate AbstractServlet
create ListProductCategoryDatabase
AbstractServlet -> ListProductCategoryDatabase : new
activate ListProductCategoryDatabase
ListProductCategoryDatabase - -> AbstractServlet
deactivate ListProductCategoryDatabase
create SqlInternalError
AbstractServlet -> SqlInternalError : new
activate SqlInternalError
create ErrorMessage
SqlInternalError -> ErrorMessage : new
activate ErrorMessage
create Message
ErrorMessage -> Message : new
activate Message
Message - -> ErrorMessage
deactivate Message
ErrorMessage - -> SqlInternalError
deactivate ErrorMessage
SqlInternalError - -> AbstractServlet
deactivate SqlInternalError
AbstractServlet -> AbstractServlet : writeError
activate AbstractServlet
AbstractServlet -> Message : toJSON
activate Message
Message - -> AbstractServlet
deactivate Message
AbstractServlet -> AbstractServlet : writeJSON
activate AbstractServlet
AbstractServlet - -> AbstractServlet
deactivate AbstractServlet
AbstractServlet - -> AbstractServlet
deactivate AbstractServlet
AbstractServlet - -> LoginServlet
deactivate AbstractServlet
create Message
LoginServlet -> Message : new
activate Message
Message - -> LoginServlet
deactivate Message
LoginServlet -> AbstractServlet : writeMessageOrRedirect
activate AbstractServlet
AbstractServlet -> Message : toJSON
activate Message
Message - -> AbstractServlet
deactivate Message
AbstractServlet -> AbstractServlet : writeJSON
activate AbstractServlet
AbstractServlet - -> AbstractServlet
deactivate AbstractServlet
AbstractServlet - -> LoginServlet
deactivate AbstractServlet
create Message
LoginServlet -> Message : new
activate Message
Message - -> LoginServlet
deactivate Message
LoginServlet -> AbstractServlet : writeMessageOrRedirect
activate AbstractServlet
AbstractServlet -> Message : toJSON
activate Message
Message - -> AbstractServlet
deactivate Message
AbstractServlet -> AbstractServlet : writeJSON
activate AbstractServlet
AbstractServlet - -> AbstractServlet
deactivate AbstractServlet
AbstractServlet - -> LoginServlet
deactivate AbstractServlet
LoginServlet -> AbstractServlet : writeJsp
activate AbstractServlet
create ListProductCategoryDatabase
AbstractServlet -> ListProductCategoryDatabase : new
activate ListProductCategoryDatabase
ListProductCategoryDatabase - -> AbstractServlet
deactivate ListProductCategoryDatabase
create SqlInternalError
AbstractServlet -> SqlInternalError : new
activate SqlInternalError
create ErrorMessage
SqlInternalError -> ErrorMessage : new
activate ErrorMessage
create Message
ErrorMessage -> Message : new
activate Message
Message - -> ErrorMessage
deactivate Message
ErrorMessage - -> SqlInternalError
deactivate ErrorMessage
SqlInternalError - -> AbstractServlet
deactivate SqlInternalError
AbstractServlet -> AbstractServlet : writeError
activate AbstractServlet
AbstractServlet -> Message : toJSON
activate Message
Message - -> AbstractServlet
deactivate Message
AbstractServlet -> AbstractServlet : writeJSON
activate AbstractServlet
AbstractServlet - -> AbstractServlet
deactivate AbstractServlet
AbstractServlet - -> AbstractServlet
deactivate AbstractServlet
AbstractServlet - -> LoginServlet
deactivate AbstractServlet
LoginServlet -> AbstractServlet : writeError
activate AbstractServlet
AbstractServlet -> GenericError : toJSON
activate GenericError
GenericError - -> AbstractServlet
deactivate GenericError
AbstractServlet -> AbstractServlet : writeJSON
activate AbstractServlet
AbstractServlet - -> AbstractServlet
deactivate AbstractServlet
AbstractServlet - -> LoginServlet
deactivate AbstractServlet
return
@enduml

PlantUML version 1.2018.13(Mon Nov 26 18:11:51 CET 2018)
(GPL source distribution)
Java Runtime: OpenJDK Runtime Environment
JVM: OpenJDK 64-Bit Server VM
Java Version: 11.0.14.1+1-Ubuntu-0ubuntu1.20.04
Operating System: Linux
OS Version: 5.10.60.1-microsoft-standard-WSL2
Default Encoding: UTF-8
Language: en
Country: null
--></g></svg>