<?xml version="1.0" standalone="no"?>
<!DOCTYPE svg PUBLIC "-//W3C//DTD SVG 20010904//EN"
 "http://www.w3.org/TR/2001/REC-SVG-20010904/DTD/svg10.dtd">
<svg version="1.0" xmlns="http://www.w3.org/2000/svg"
 width="700.000000pt" height="700.000000pt" viewBox="0 0 700.000000 700.000000"
 preserveAspectRatio="xMidYMid meet">
<metadata>
Created by potrace 1.14, written by Peter Selinger 2001-2017
</metadata>
<g transform="translate(0.000000,700.000000) scale(0.100000,-0.100000)"
fill="#000000" stroke="none">
<path d="M5315 6993 c-103 -12 -296 -62 -385 -100 -260 -112 -446 -256 -623
-483 -98 -125 -195 -334 -240 -515 -33 -129 -39 -175 -42 -315 -4 -196 15
-323 76 -503 16 -48 27 -91 25 -95 -4 -6 -2127 -2129 -2140 -2140 -2 -1 -46 8
-97 22 -369 95 -779 37 -1109 -156 -179 -104 -360 -279 -479 -463 -74 -113
-169 -324 -185 -408 -2 -12 -11 -56 -19 -97 -9 -41 -19 -97 -22 -125 -7 -54
-8 -278 -1 -310 2 -11 7 -42 10 -70 6 -43 31 -149 52 -222 3 -13 9 -23 13 -23
3 0 226 220 495 489 l489 489 465 -465 465 -465 -488 -488 -488 -488 59 -13
c32 -7 64 -14 69 -15 84 -22 155 -28 310 -28 148 1 199 5 285 23 97 21 197 49
245 70 215 94 349 184 496 330 165 165 282 355 354 575 96 293 93 640 -7 925
l-29 83 28 30 c15 16 497 498 1070 1071 803 802 1048 1042 1065 1041 13 -1 60
-11 104 -22 118 -30 188 -37 369 -36 181 1 270 15 434 70 454 152 812 525 937
979 15 55 34 143 43 203 11 71 16 305 7 347 -2 11 -7 43 -10 70 -7 53 -53 235
-62 244 -2 3 -226 -216 -496 -486 l-491 -491 -465 465 -465 465 488 488 487
487 -94 21 c-51 12 -106 24 -123 28 -33 6 -333 12 -380 7z"/>
</g>
</svg>
