<?xml version="1.0" standalone="no"?>
<!DOCTYPE svg PUBLIC "-//W3C//DTD SVG 20010904//EN"
 "http://www.w3.org/TR/2001/REC-SVG-20010904/DTD/svg10.dtd">
<svg version="1.0" xmlns="http://www.w3.org/2000/svg"
 width="1000.000000pt" height="1000.000000pt" viewBox="0 0 1000.000000 1000.000000"
 preserveAspectRatio="xMidYMid meet">
<metadata>
Created by potrace 1.14, written by Peter Selinger 2001-2017
</metadata>
<g transform="translate(0.000000,1000.000000) scale(0.100000,-0.100000)"
fill="#000000" stroke="none">
<path d="M880 8927 c-142 -59 -222 -144 -271 -286 -18 -51 -19 -102 -19 -990
0 -1002 -1 -971 50 -1071 35 -68 106 -137 177 -171 56 -27 80 -32 191 -39 70
-5 321 -8 557 -8 416 1 432 0 485 -21 98 -37 160 -122 160 -217 0 -26 -16
-147 -35 -268 -19 -122 -39 -252 -45 -291 -6 -38 -15 -98 -20 -132 -6 -35 -14
-92 -20 -128 -5 -36 -14 -94 -20 -130 -5 -36 -14 -94 -20 -130 -5 -36 -15 -95
-20 -132 -6 -38 -15 -93 -20 -123 -5 -30 -14 -84 -19 -120 -70 -441 -115 -697
-132 -750 -26 -83 -81 -165 -141 -210 -26 -19 -93 -54 -150 -78 -128 -53 -202
-104 -245 -166 -41 -60 -57 -113 -57 -199 l-1 -68 1834 1 c1008 0 1838 3 1844
7 15 9 1 107 -25 181 -34 97 -112 176 -200 203 -96 30 -519 139 -653 168 -267
58 -302 73 -357 146 -61 81 -62 103 -16 394 41 264 45 291 73 476 25 169 15
160 175 160 140 0 167 5 211 36 21 15 30 34 42 91 24 117 44 233 73 433 23
159 31 210 48 305 28 151 17 212 -41 239 -16 8 -83 16 -161 19 -73 2 -135 8
-137 13 -3 4 0 40 6 81 6 40 14 100 19 132 5 32 13 63 19 69 5 5 127 9 308 8
409 -1 603 11 833 55 103 19 359 99 485 151 193 80 485 234 522 275 44 50 44
47 41 823 -3 849 5 778 -101 846 -65 41 -349 186 -452 230 -50 22 -170 62
-320 108 -78 24 -222 54 -364 76 l-156 25 -1940 0 -1940 0 -55 -23z"/>
<path d="M6492 8451 c-88 -30 -142 -99 -161 -203 -6 -35 -10 -288 -11 -650 0
-652 0 -653 60 -737 50 -69 110 -91 246 -91 78 0 123 5 148 15 59 25 113 81
136 141 19 53 20 75 20 683 0 719 2 702 -79 782 -33 34 -61 51 -100 63 -73 21
-192 20 -259 -3z"/>
<path d="M7155 8456 c-16 -7 -40 -25 -53 -38 l-23 -25 -5 -714 c-5 -680 -5
-716 13 -749 32 -61 65 -70 256 -70 218 0 232 6 324 145 90 135 139 240 172
365 l17 65 875 5 c666 4 881 8 902 17 45 20 57 65 57 208 0 86 -4 136 -14 160
-29 68 20 65 -949 65 l-873 0 -12 59 c-18 85 -63 188 -134 309 -70 116 -123
177 -173 198 -47 19 -337 19 -380 0z"/>
<path d="M4760 5660 c-58 -4 -125 -8 -150 -9 -25 -1 -51 -5 -59 -10 -7 -5 -17
-40 -22 -82 -25 -202 -25 -183 3 -176 14 4 112 12 219 18 272 16 798 6 1044
-21 446 -48 830 -137 1038 -241 77 -39 122 -95 107 -135 -33 -86 -324 -202
-686 -273 -531 -105 -1338 -123 -1944 -45 -69 9 -143 13 -165 10 -22 -4 -57
-8 -77 -10 -43 -4 -67 -20 -66 -44 1 -9 -4 -48 -11 -85 -8 -39 -10 -72 -5 -76
17 -16 291 -56 559 -83 204 -20 1013 -17 1228 5 477 49 837 127 1086 236 38
17 75 31 81 31 8 0 10 -79 8 -301 l-4 -302 -47 -42 c-107 -98 -458 -204 -872
-264 -212 -31 -452 -49 -743 -57 l-263 -7 24 -26 c32 -35 87 -117 87 -130 0
-6 5 -11 10 -11 6 0 10 -7 10 -15 0 -8 5 -26 12 -40 l11 -25 181 0 c541 0
1176 111 1519 264 32 14 60 26 62 26 3 0 5 -139 5 -309 l0 -309 -37 -30 c-145
-114 -524 -221 -973 -276 -145 -18 -363 -34 -575 -44 l-149 -7 -7 -35 c-4 -19
-6 -75 -5 -125 l1 -90 185 3 c577 10 1160 113 1501 265 l56 25 7 -115 c4 -63
4 -201 0 -306 l-7 -192 -32 -30 c-120 -115 -553 -236 -1035 -289 -133 -15
-438 -35 -594 -39 l-80 -2 -11 -51 c-6 -28 -21 -72 -33 -98 -12 -25 -22 -50
-22 -55 0 -5 -7 -14 -15 -21 -37 -31 -15 -33 223 -26 569 17 996 78 1347 193
263 86 427 193 506 329 l29 51 0 1463 0 1463 -22 45 c-119 238 -574 416 -1268
497 -339 40 -865 55 -1170 35z"/>
<path d="M4930 5273 c-282 -12 -426 -25 -436 -39 -7 -8 -15 -36 -19 -62 -14
-99 -68 -298 -86 -318 -11 -11 -19 -23 -19 -26 0 -25 399 -52 770 -52 624 -1
1157 71 1497 201 51 20 93 39 93 44 0 12 -43 32 -144 68 -283 100 -706 163
-1216 181 -157 5 -305 9 -330 8 -25 -1 -74 -3 -110 -5z"/>
<path d="M6665 4428 c-249 -74 -616 -137 -985 -170 -89 -7 -303 -12 -555 -12
-445 1 -623 12 -945 61 -228 34 -210 34 -225 -7 -16 -45 -38 -231 -28 -240 5
-4 42 -15 83 -24 41 -10 95 -24 120 -31 25 -7 81 -21 125 -30 151 -30 260 -57
370 -91 110 -33 114 -34 365 -40 701 -18 1347 69 1725 233 100 44 95 33 95
219 0 90 -3 165 -7 167 -5 2 -66 -14 -138 -35z"/>
<path d="M6680 3499 c-328 -102 -808 -172 -1268 -186 -111 -3 -205 -9 -207
-13 -2 -4 -1 -27 3 -51 10 -55 -19 -170 -54 -216 -30 -40 -30 -46 4 -89 l27
-34 95 0 c108 0 481 25 615 40 362 42 701 127 868 217 l47 26 0 169 c0 195 13
181 -130 137z"/>
<path d="M1267 2803 c-4 -3 -7 -216 -7 -472 0 -437 1 -470 19 -519 35 -94 94
-159 185 -203 l60 -29 1579 0 1579 0 63 30 c78 37 146 110 174 185 19 52 20
78 21 532 l1 478 -1834 3 c-1008 1 -1837 -1 -1840 -5z"/>
<path d="M6760 2588 c-52 -21 -410 -107 -530 -127 -274 -46 -637 -79 -910 -84
l-125 -2 -2 -187 c-1 -153 1 -189 13 -199 30 -24 526 4 829 47 266 38 580 121
712 188 43 21 53 32 58 58 9 52 1 311 -10 314 -5 1 -21 -2 -35 -8z"/>
</g>
</svg>
